<svg height="512pt" viewBox="0 0 512 512" width="512pt" xmlns="http://www.w3.org/2000/svg"><path d="m512 256c0 141.386719-114.613281 256-256 256s-256-114.613281-256-256 114.613281-256 256-256 256 114.613281 256 256zm0 0" fill="#ff636e"/><path d="m504.929688 315.929688-141.929688-141.929688h-212l101.242188 101.242188-148.515626 130.757812 100.828126 100.828125c16.617187 3.390625 33.824218 5.171875 51.445312 5.171875 120.746094 0 221.949219-83.601562 248.929688-196.070312zm0 0" fill="#f03049"/><path d="m103.726562 320.90625h85.09375v85.09375h-85.09375zm0 0" fill="#fff"/><path d="m323.179688 320.90625h85.09375v85.09375h-85.09375zm0 0" fill="#e9edf5"/><path d="m173.5 174h165v92h-165zm0 0" fill="#5a54e0"/><path d="m255.90625 174h82.59375v92h-82.59375zm0 0" fill="#3838ba"/><path d="m151 260v146h66.515625v-64.515625c0-21.253906 17.230469-38.484375 38.484375-38.484375s38.484375 17.230469 38.484375 38.484375v64.515625h66.515625v-146zm0 0" fill="#ffda00"/><path d="m255.90625 260v43.003906c.03125 0 .0625-.003906.09375-.003906 21.253906 0 38.484375 17.230469 38.484375 38.484375v64.515625h66.515625v-146zm0 0" fill="#ffb000"/><path d="m151 174 106-106 106 106zm0 0" fill="#fff"/><path d="m255.90625 174h107.09375l-106-106zm0 0" fill="#e9edf5"/></svg>